PathFileType	4	(X/Y/Z)	52_2_60_p1_0-272_filt_butterworth.trc
DataRate	CameraRate	NumFrames	NumMarkers	Units	OrigDataRate	OrigDataStartFrame	OrigNumFrames
46.0	46.0	5	27	m	46.0	68	272
Frame#	Time	RHip			RKnee			RAnkle			RBigToe			RSmallToe			RHeel			LHip			LKnee			LAnkle			LBigToe			LSmallToe			LHeel			Neck			Head			Nose			RShoulder			RElbow			RWrist			RThumb			RIndex			RPinky			LShoulder			LElbow			LWrist			LThumb			LIndex			LPinky			
		X1	Y1	Z1	X2	Y2	Z2	X3	Y3	Z3	X4	Y4	Z4	X5	Y5	Z5	X6	Y6	Z6	X7	Y7	Z7	X8	Y8	Z8	X9	Y9	Z9	X10	Y10	Z10	X11	Y11	Z11	X12	Y12	Z12	X13	Y13	Z13	X14	Y14	Z14	X15	Y15	Z15	X16	Y16	Z16	X17	Y17	Z17	X18	Y18	Z18	X19	Y19	Z19	X20	Y20	Z20	X21	Y21	Z21	X22	Y22	Z22	X23	Y23	Z23	X24	Y24	Z24	X25	Y25	Z25	X26	Y26	Z26	X27	Y27	Z27	
68	1.4782608695652173	0.24921530224693234	0.5261716456667064	0.4738804617707228	0.15580629366186535	0.681481534582001	0.899840571321325	0.06599970173384004	0.7853559366472321	1.2795424343851884	0.006739274111443375	0.6194344421092024	1.320199675354366	0.07477561275204489	0.6195842411418753	1.3271722239581165	0.012692085882597268	0.8838001874641327	1.3291220003727298	0.05087663788527218	0.54938946341897	0.428350856137497	-0.055692737997701004	0.7007528173710793	0.8486120102052401	-0.13278892261065228	0.7716505761137161	1.2221086077722338	-0.14020602448975672	0.6097278043704458	1.26385370374429	-0.1984581500982005	0.6538773825629657	1.26125739034722	-0.1383650828075922	0.8476321170315183	1.2849792497407722	0.2630541970716297	0.42241631081437525	-0.027985474135154533	0.34065587978252465	0.38138170232646335	-0.25236976151858465	0.28802664549698426	0.34314431561865344	-0.1430165261429364	0.38052722296169644	0.45091891877750373	0.10201543688930022	0.36699679378625344	0.5263134407991434	0.38468887005277363	0.28711607632332176	0.5017125118727059	0.6142010070748382	0.20966837621650355	0.4524474824178311	0.696108321849528	0.222823960039296	0.5002658848633945	0.7370639086152959	0.2618674990329718	0.5376972760943797	0.7343769017235933	0.09666442173647179	0.47841091016110937	-0.008786114885258607	0.005322373994832218	0.4881079969678004	0.24037182031678414	-0.03746625072992903	0.5120240749969384	0.49222776457962647	-0.011083162414790373	0.5021412202541149	0.5972564284575269	-0.045649408866128026	0.4764383776149826	0.6054534963407835	-0.07832491954605998	0.5126746903360514	0.5918251254582075
69	1.5	0.2504326852443987	0.5215230194913644	0.474807169666439	0.15573040028782073	0.6819588509440521	0.9010774532252176	0.0660586167169167	0.7856796790684542	1.2796676187793152	0.006779343097592871	0.6194477008367222	1.3201521491100416	0.07485841870910832	0.6196564798257793	1.3271696593764504	0.012839142124175772	0.8839384350283737	1.3291409819058606	0.05078334355683666	0.5500690292411654	0.42864969314087614	-0.0562048680721048	0.70059496421635	0.8492578512754946	-0.13154956400638823	0.7724414829809435	1.222647399958019	-0.1398953679201459	0.6145785116283919	1.2661675041670533	-0.19843809379863653	0.6538638578907258	1.261254391897696	-0.13837473583666562	0.8478971963836918	1.2850757857203667	0.2634714567313787	0.42241606622486205	-0.0295542627968095	0.34040976797024497	0.38096887020088727	-0.252355223560644	0.2880546086114206	0.3432063724895409	-0.143750755846532	0.38053209582358727	0.4508522904575851	0.10201076669167748	0.3688122377263408	0.5188658385259285	0.38455987222225096	0.28964821515582045	0.49755504260944317	0.613988692973459	0.20966844782592525	0.4526090214104121	0.6960706118816588	0.22315316325868068	0.5002183282949804	0.7370861550527983	0.262963405509237	0.5373152895120751	0.7339692727418944	0.09692681620233942	0.47843154245965536	-0.009687041570187481	0.0060957453333889775	0.48826452675964205	0.23945691974492292	-0.03737293727525264	0.5122098212415489	0.4910649333589028	-0.011136302756630063	0.5025018626715066	0.5973016565279299	-0.04685662599033113	0.4801589887725176	0.6049664050157586	-0.08252303600422274	0.5162817052387284	0.5919004527177905
70	1.5217391304347827	0.2506905696849718	0.5204213397416673	0.4749858871463994	0.1555941592489407	0.6820552877153101	0.9010934306841607	0.06609557587393661	0.7859650974131962	1.2798160155641347	0.006807458962923382	0.619480218430236	1.3201063475754418	0.07487918654213652	0.6201006850059861	1.3272309341423716	0.012896217868105393	0.8839704703958756	1.3290863300030418	0.050830889812260874	0.5505707557256916	0.42852824422902613	-0.056080044918272814	0.7008460293191616	0.8500870686594751	-0.13137615889188226	0.7726578313416049	1.2228442237110262	-0.13959818621348444	0.6222981336897684	1.2696057135889127	-0.19843707795019072	0.6538217767415117	1.2612304298541452	-0.1383709911023843	0.8481579156787019	1.28511446218591	0.26376411723234533	0.42241582504828185	-0.030584912079587013	0.3403783312210803	0.3809235903199809	-0.25235598677990423	0.28802532190649194	0.3432543994141617	-0.1437959168581463	0.3805143275876881	0.4511052918313088	0.10197599579352373	0.3708604031917798	0.5104135362992785	0.384436238405957	0.2915950969568313	0.49183352236213795	0.6134715613324363	0.20965477498907653	0.4525904576809095	0.6960407137241271	0.223265022447526	0.49999072978870784	0.7370929033236114	0.26341597267647854	0.5373839368228638	0.7344977411077006	0.09696354659640391	0.4784484833628969	-0.009702646036478838	0.006454988918905466	0.48851797131510266	0.23928199478717324	-0.03742784263831975	0.5125106656683736	0.4908685215523239	-0.01284131201927358	0.5072639345510013	0.5977516707741788	-0.048673054536676495	0.48577546968060253	0.6040593370018263	-0.08530144782566039	0.5213847507213513	0.5915706248172107
71	1.5434782608695652	0.25053907791179114	0.5209205095776671	0.4748943917459327	0.15546787321412328	0.68210753831992	0.9009677738262374	0.06586795164395878	0.7845568823232717	1.2793443481383224	0.0068479374188674625	0.6194772739634268	1.3200546086929799	0.07486186462405915	0.6208312223096273	1.3273073432155822	0.012911340441418824	0.8839664195394996	1.3289311434232243	0.05107394698109786	0.5505071883598577	0.4273001441453925	-0.05564479463139878	0.7019808963877398	0.851421939481643	-0.1315534926421232	0.7726099078960766	1.2228797442644057	-0.13964285131194953	0.6261490117400107	1.2703558031209816	-0.19842556598035768	0.6538016575788634	1.2611940809233757	-0.13836542093378845	0.8482722058906109	1.2850467003903938	0.2638607494235906	0.422396629660173	-0.030741554490255917	0.34051778381734576	0.38116600014620117	-0.25236931779552557	0.2880513398015254	0.3432739576124228	-0.14368968090774054	0.38041987451625175	0.45167334548850613	0.10189801628874545	0.37248252499031737	0.5036927660242824	0.3843838401768775	0.29284961810344995	0.4874305246276316	0.6130788485142137	0.2096289853025849	0.452633370619613	0.6960646833775256	0.22324173219371632	0.499897088466344	0.7370539700746261	0.26339394051939097	0.5384008296333029	0.735927561864926	0.09693441045634626	0.47842143410532895	-0.009327045458230526	0.006497179426467674	0.4885835405457626	0.23927200068884466	-0.03756021535786696	0.51260923938311	0.4913183286817257	-0.016572804378597334	0.5172077278372393	0.598670006607002	-0.049965484634035474	0.4894157959965727	0.6034771024617189	-0.0856410826728412	0.524457738285123	0.5907079324554826
72	1.565217391304348	0.25044335889510305	0.5212461921784379	0.4748397862684911	0.15541083666064953	0.68206443197719	0.9010157922322696	0.06531729300508309	0.7810522402743519	1.2780518251274589	0.006887415961365441	0.6195195476639191	1.3200283470536969	0.07485389073577167	0.6212438782583711	1.3273529967260864	0.01289913345262546	0.88394095955738	1.3287860624116332	0.051368757450348135	0.548632928959264	0.42530615118034376	-0.05539911005997612	0.7032826568991324	0.8527260223766759	-0.13158594320220043	0.7725215440131388	1.2228437577494502	-0.13995133213043875	0.6220513733508273	1.2674088745764953	-0.19839116905080745	0.6537737482133822	1.261172454449028	-0.13833231250426203	0.8480820511393712	1.2848792746662312	0.26386854070148547	0.42236760135665213	-0.030595859097250808	0.340325196519103	0.38144337059698774	-0.252307912124013	0.28780738848901777	0.3432688557989911	-0.14384001116199507	0.3806138172372634	0.45102101100060715	0.1018943183159915	0.37357258378408886	0.4992458726323685	0.38437008591578664	0.29457318904886104	0.4818861765219703	0.6126433284026824	0.20958811283237558	0.4527505910137697	0.6961005623997414	0.22324436296133263	0.49989200601329986	0.7370163893396343	0.26315659417511184	0.5397695526084407	0.7371503313899886	0.09694937786229596	0.47837920583456917	-0.00915641762081772	0.006336602077640128	0.48835390542693313	0.2395235414547704	-0.03768515719934155	0.5120521889887403	0.4919992789500749	-0.020830873580579806	0.5283913628248698	0.5996488533690251	-0.05088761750687563	0.49016113125650984	0.6046753674040609	-0.08568083164789068	0.5258733514004031	0.5904810720014534
